<?xml version="1.0" encoding="iso-8859-1"?>
<!-- Generator: Adobe Illustrator 19.0.0, SVG Export Plug-In . SVG Version: 6.00 Build 0)  -->
<svg version="1.1" id="Capa_1" xmlns="http://www.w3.org/2000/svg" xmlns:xlink="http://www.w3.org/1999/xlink" x="0px" y="0px"
	 viewBox="0 0 512 512" style="enable-background:new 0 0 512 512;" xml:space="preserve">
<circle style="fill:#0074A3;" cx="256" cy="256" r="256"/>
<path style="fill:#005C83;" d="M512,256c0-1.789-0.031-3.571-0.068-5.351L361.274,99.99L148.81,117.81l-10.714,156.548L256,454.923
	l51.826,51.826C424.364,482.787,512,379.629,512,256z"/>
<path style="fill:#FFDC00;" d="M256,58.385c-85.066,0-154.026,68.96-154.026,154.026C101.974,363.313,256,454.923,256,454.923
	s154.026-102.325,154.026-242.511C410.026,127.345,341.066,58.385,256,58.385z M256,313.98
	c-56.095,0-101.568-45.473-101.568-101.568S199.905,110.843,256,110.843s101.568,45.474,101.568,101.568S312.095,313.98,256,313.98z
	"/>
<path style="fill:#FFC000;" d="M256,454.923c0,0,154.026-102.324,154.026-242.511c0-85.066-68.96-154.026-154.026-154.026
	c-0.016,0-0.032,0.001-0.048,0.001v52.458c0.016,0,0.032-0.001,0.048-0.001c56.095,0,101.568,45.474,101.568,101.568
	c0,56.095-45.474,101.568-101.568,101.568V454.923z"/>
<rect x="187.14" y="228.26" style="fill:#FF6838;" width="142.38" height="16.497"/>
<rect x="255.95" y="228.26" style="fill:#AE4E32;" width="73.57" height="16.497"/>
<rect x="198.26" y="198.32" style="fill:#E0E0E0;" width="39.09" height="29.946"/>
<rect x="198.26" y="212.41" style="fill:#FFFFFF;" width="125.88" height="15.851"/>
<rect x="255.95" y="212.41" style="fill:#E0E0E0;" width="68.19" height="15.851"/>
<rect x="315.53" y="197.42" style="fill:#FFD863;" width="22.24" height="66.35"/>
<rect x="180.69" y="155.1" style="fill:#FFECB3;" width="22.24" height="108.67"/>
<g>
</g>
<g>
</g>
<g>
</g>
<g>
</g>
<g>
</g>
<g>
</g>
<g>
</g>
<g>
</g>
<g>
</g>
<g>
</g>
<g>
</g>
<g>
</g>
<g>
</g>
<g>
</g>
<g>
</g>
</svg>
